<?xml version="1.0" encoding="utf-8"?>
<!-- Generator: Adobe Illustrator 22.1.0, SVG Export Plug-In . SVG Version: 6.00 Build 0)  -->
<svg version="1.1" id="レイヤー_1" xmlns="http://www.w3.org/2000/svg" xmlns:xlink="http://www.w3.org/1999/xlink" x="0px"
	 y="0px" viewBox="0 0 121.7 69.6" style="enable-background:new 0 0 121.7 69.6;" xml:space="preserve">
<style type="text/css">
	.st0{fill:#231815;}
</style>
<g>
	<path class="st0" d="M97.9,44.9c0.1-0.1,0.3-0.3,0.4-0.5c0.6-0.2,0.8,0.2,1,0.4c0.5,0.2,1-0.2,1.4,0.2c0.3,0.2,0.3-0.2,0.5-0.2
		c1,0,2.1-0.1,3.1,0.1c0.6,0.1,1.2,0.1,1.7,0.4c0.3,0.1,0.6,0,1,0.1c0.4,0,0.7-0.2,1,0.2c0.1,0.1,0.2,0.1,0.3,0
		c1.5-0.5,3.1-0.1,4.7-0.2c0.3,0.3,0.5,0.6,0.9,1c0,0.2,0,0.6,0,0.9c-0.2,0.1-0.5,0.4-0.7,0.4c-1.1-0.1-2.2,0.3-3.2-0.5
		c-0.8,0.2-1.5-0.3-2.3-0.2s-1.4-0.7-2.1-0.8c-0.1,0.2-0.1,0.3-0.2,0.5c-0.8,0-1.5,0-2.3,0c-0.1-0.1-0.2-0.4-0.4-0.5
		c-0.4,0-0.7-0.1-0.8,0.3c-0.2-0.2-0.3-0.3-0.5-0.5c-0.5,0-1,0-1.7,0c0.1,0.5-0.2,0.8-0.6,1.2c0.2,0,0.3,0.1,0.5,0.1
		c0.2,0.3,0.2,0.6-0.1,0.8c0.1,0.2,0.3,0.3,0.2,0.5c-0.1,2.8,0.4,5.6,0.2,8.4c0,0.6,0,1.2,0,1.9c0,0.6-0.5,1.1-0.2,1.8
		c-0.2,0.1-0.4,0.3-0.6,0.3c0,0.5,0.4,0.6,0.5,0.9c0.1,0.3-0.4,0.5-0.1,0.8s0,0.6-0.2,0.9c0.2,0.3,0.4,0.7,0.3,1.1
		c-0.7,0.9-0.8,2.1-1.6,3c-0.4-0.1-0.6-0.4-0.8-0.6C97,66,97.5,65,97.4,64c-0.1-1,0-2.1,0-3.2c0.1-0.3,0.7-0.5,0.4-1.1
		c-0.1-0.1-0.3-0.2-0.4-0.3c0-0.7,0-1.3,0-2c0.1-0.1,0.3-0.3,0.5-0.5c0-0.3-0.4-0.4-0.5-0.8c0-0.4,0-1,0-1.7c0.1,0,0.3-0.1,0.4-0.1
		c0-0.5,0-1,0-1.6c-0.1-0.1-0.3-0.3-0.4-0.5c0-0.3,0-0.5,0-0.8c0.2-0.2,0.3-0.3,0.5-0.5c0-0.1,0-0.2,0-0.2c0-1,0-1.9,0.4-2.8
		c0.4-0.8-0.1-1.6-0.8-2.1c-2.3,0-4.6,0-7,0c-0.2,0.5-0.7,0.5-1.1,0.6c-0.3,0.1-0.7-0.3-1,0.1c-0.4-0.1-0.6-0.4-1.1-0.1
		c-0.6,0.3-1.3,0.6-2.1,0.2c-0.5-0.3-1.2,0-1.9-0.1c-0.3,0-0.5,0.3-0.9,0c-0.2-0.2-0.7,0-1-0.3c-0.1-0.1-0.2,0-0.4,0
		c-0.1-0.4-0.1-0.8-0.1-1.3c0.7,0.1,1.4,0,2.2,0.2c0.5,0.2,1.3,0.2,1.9-0.1c0.1-0.1,0.3-0.1,0.5-0.1c1.7,0,3.4,0,5.1,0
		c0.2,0,0.3,0.1,0.4,0.2c0.5-0.3,0.9-0.5,1.5-0.5C94.3,44.9,96,44.9,97.9,44.9z"/>
	<path class="st0" d="M30.3,27.4c-0.8,0-1.5,0-2.1,0c-0.9-1-2.2-0.7-3.2-0.8c-0.5-0.3-0.5-0.7-0.4-1.1c0.2-0.1,0.5-0.3,0.8-0.6
		c1.2-0.3,2.5,0.5,3.9,0.2c0.1,0.2,0.3,0.4,0.5,0.7c0.4-0.5,0.9-0.4,1.4-0.4c0.3,0.1,0.4,0.6,0.8,0.5c0.3,0.5,0.4,1,0.9,1.4
		c-0.1,0.1-0.1,0.1-0.1,0.1c0.2,0.2,0.5,0.5,0.7,0.7c0,0.5-0.3,1,0.1,1.4c0.1,0.2,0.1,0.6,0,0.8c-0.4,0.8-0.1,1.6-0.2,2.3
		c0.3,0.5,0.5,0.9,0.8,1.5c-0.4,1.2-0.1,2.6-0.7,4c-0.3,0.8-0.2,1.8,0,2.7c0.1,0.5,0.2,0.9,0,1.4c-0.2,0.4,0,0.8-0.2,1.2
		c-0.2,0.5-0.5,1-0.8,1.4c-0.6,1.1-0.9,2.2-0.9,3.4c0,0.4,0,0.8,0,1.4c-0.2,0.1-0.4,0.3-0.8,0.5c-0.5,0-0.5,0-1-0.3
		c-0.1-0.5,0-1,0.2-1.5c0.3-0.9,0.5-1.9,0.5-2.9c0-0.6,0.4-1.1,0.2-1.7c0.2,0,0.3-0.1,0.4-0.1c0.2-0.2-0.1-0.2-0.2-0.5
		c0.5-0.4,0-1.2,0.5-1.7c-0.1-1,0.4-2,0.2-3c-0.1-0.6-0.3-1.2-0.3-1.8c0.1-0.6-0.2-1.2,0.2-1.8c0.1-0.1,0.1-0.3,0-0.4
		c-0.5-0.9,0-2-0.5-2.9c-0.3-0.6,0.2-1.4,0.4-2.2c-0.1-0.3-0.3-0.7-0.6-0.9C30.7,28.3,30.6,27.8,30.3,27.4z"/>
	<path class="st0" d="M10,11.3c-0.2,0.2-0.4,0.4-0.5,0.5c-0.1,0-0.1,0-0.2,0.1c-0.8,0.1-1.7-0.2-2.5,0.2c-0.7-0.5-1.4,0-2,0.1
		c-0.9,0.1-1.7-0.4-2.5-0.3c-0.1,0-0.2-0.2-0.3-0.3c0-0.4,0-0.7,0-1c0.3-0.4,0.9-0.4,1.1-0.8c0.4,0,0.8,0,1.3,0
		c0.1,0.1,0.2,0.3,0.4,0.5c0.3,0,0.6,0,0.9,0C5.6,10,5.6,9.9,5.6,9.8c0.3-0.3,0.6,0,0.9-0.2C6.7,9.8,6.8,9.9,7,10.1c0.5,0,1,0,1.6,0
		c0-0.1,0.2-0.3,0.3-0.5c0.8,0.2,1.4-0.1,2.1-0.2c0.5,0.6,1.4-0.1,2,0.4c1-0.3,2-0.8,3.2-0.7c0.9,0.1,1.7,0,2.6,0
		c0.4,0,0.8,0,1.2-0.2c0.3-0.2,0.7,0.2,1-0.2c1.5-0.1,3-0.2,4.5-0.3c0.2,0,0.5,0.2,0.7,0.4c0,0.2,0,0.3,0,0.5
		c-0.3,0.3-0.5,0.5-0.8,0.8c-0.7,0-1.4,0-2.1,0C23.2,10,23,9.8,22.8,9.6c-0.1,0.2-0.2,0.3-0.3,0.5c-1-0.1-1.8,0.4-2.7,0.2
		c-0.5,0.4-1.2,0.1-1.7,0.4c-0.2,0.1-0.4,0.1-0.6,0.1c-0.5,0-1,0-1.5,0c-0.8,0-1.5,0-2.2,0s-1.3,0.5-1.9,0.2
		c-0.2,0.2-0.3,0.3-0.5,0.5C10.9,11.1,10.4,11.5,10,11.3z"/>
	<path class="st0" d="M7.6,28.8c0.2-0.3,0.3-0.6,0.5-0.8c0.3-0.2,0.6-0.1,0.9-0.1c0.1,0.1,0.2,0.2,0.4,0.4c0,0.9,0.1,1.8,0,2.7
		c-0.1,0.9,0.4,1.7,0.3,2.5c0.1,0.1,0.3,0.3,0.5,0.5c0,0.3,0,0.5,0,0.8C10,35,9.9,35.1,9.7,35.3c0,1,0,2,0,3
		c0.1,0.2,0.2,0.1,0.4,0.2c0.4,0.5-0.3,0.8-0.2,1c0.2,0.6,0.8,0.8,0.5,1.4c-0.1,0.1-0.3,0.2-0.5,0.3c0.2,0.2,0.2,0.3,0.3,0.4
		c-0.2,0.2-0.3,0.3-0.5,0.5c0.1,0.5,0.1,0.5,0.5,1c-0.1,0.5,0.2,1.1-0.3,1.6c-0.1,0.3,0.3,0.3,0.2,0.5c0,0.2-0.2,0.2-0.2,0.4
		c0.1,0.1,0.2,0.1,0.3,0.1c0.5,1.3,0.5,1.3,0,2.3c-0.5,0.5-1.1,0.5-1.8,0.5c-0.1-0.2-0.3-0.4-0.6-0.8c0.1-0.7,0.3-1.5,0.4-2.4
		c-0.1,0-0.2-0.1-0.3-0.1l-0.1-0.1V45c0-1-0.1-2.1,0-3.1c0.1-0.6,0.1-1.3,0.4-2c-0.4-0.4-0.5-1.1-0.7-1.7c-0.3-0.7-0.3-1.2,0-1.8
		c0.1-0.2,0-0.6,0-0.9C7.6,33.2,7.6,31,7.6,28.8L7.6,28.8z"/>
	<path class="st0" d="M109.2,20c-0.3-0.3-0.5-0.5-0.9-0.9c-0.5,0-1.2-0.1-1.8,0c-0.6,0.1-1.1-0.4-1.6-0.3c-0.6,0.1-1.2-0.4-1.8-0.2
		c-0.3-0.3-0.6-0.7-1-1.1c0.7-0.3,1.2-0.6,2-0.3c0.5,0.2,1.1,0,1.6,0c0.5,0.2,0.8,0.4,0.9,0.5c0.6,0.1,0.8-0.3,1.1-0.2
		c0.7,0.3,1.5,0.3,2,0.8c0.6,0.5,1.4,0.7,1.7,1.9c0,1.4,0,3.1,0,4.8c0,0.4-0.1,0.7-0.2,1c-0.4,1-0.3,2-0.3,3c0,0.9-0.3,1.7-0.8,2.5
		c-0.4-0.1-0.7,0.2-1.2,0.3c0.1-0.9-0.2-1.7,0.2-2.4c0.1-0.2,0-0.6,0-0.9c-0.1-1.8,0.4-3.6,0.3-5.4c-0.1-0.6,0.1-1.2,0-1.7
		C109.3,21,109.1,20.5,109.2,20z"/>
	<path class="st0" d="M93.1,23.1c0.2-0.2,0.3-0.3,0.4-0.4c0.2,0,0.5,0,0.8,0c0.1,0.3,0.3,0.5,0.3,0.8c0.1,0.5,0,1,0,1.5
		s0,0.9,0.2,1.4c0.2,0.4-0.2,1,0.2,1.4c0.1,0.1,0,0.2,0,0.4c-0.1,0.9,0.1,1.7,0.5,2.5c0.1,0.2,0,0.4,0.2,0.5
		c0.5,0.5,0.7,1.1,0.5,1.9c-0.1,0.1-0.4,0.3-0.7,0.5c0,0-0.3,0-0.6,0c0.1,0,0,0,0,0c-0.5-0.5-1-1.1-1.3-1.8
		c-0.2-0.4-0.4-0.8-0.3-1.3c0.1-0.3-0.2-0.5-0.2-0.8c-0.1-0.6-0.4-1.1-0.3-1.8c0.1-0.2,0-0.5,0-0.7c0-0.7,0-1.5,0-2.2
		C92.9,24.3,93.5,23.7,93.1,23.1z"/>
	<path class="st0" d="M12.4,56.8c0-0.4,0-0.7,0-1.1c0.5-0.2,1-0.4,1.3-0.8c0.2,0.1,0.3,0.4,0.5,0.2c0.7-0.6,1.6-0.4,2.3-0.7
		c1.4,0.2,2.8-0.4,4.3-0.3c0.2,0,0.5,0.1,0.7-0.2c0.4,0.2,0.8,0.4,1.2,0.6c-0.2,0.5-0.6,0.7-0.9,1.1c-0.8,0.1-1.7-0.2-2.3,0.5
		c-1.1,0.1-2.2-0.3-3,0.8c-0.1-0.1-0.2-0.2-0.3-0.2c-0.2,0.2-0.3,0.3-0.5,0.5C14.6,57,13.4,57.4,12.4,56.8z"/>
	<path class="st0" d="M18.2,42.1c-1.3-1.1-1.3-1.1-1.4-2c0.3-0.2,0.6-0.5,1-0.9c0.2,0,0.5,0,0.9,0c0.2,0.2,0.3,0.3,0.5,0.5
		c0.7,0,1.5-0.1,2,0.5c1,0,2-0.1,3.1,0.3c0.2,0.2-0.2,0.8,0.3,1c-0.3,0.2-0.2,0.7-0.5,0.8c-1.2,0.3-2.3-0.1-3.3-0.5
		c-0.6-0.2-1-0.2-1.4,0C19,42,18.7,42.3,18.2,42.1z"/>
	<path class="st0" d="M102.2,36.1c-0.1-0.2-0.1-0.3-0.1-0.4c-1.1-0.5-2.1-0.8-3.3-0.6c-0.2-0.2-0.3-0.5-0.6-0.9c0,0,0-0.2,0-0.4
		c0.2-0.4,0.7-0.3,0.9-0.6c1.2,0.4,2.4,0.3,3.6,0.5c1.2,0.1,2.4,0,3.6,0c0.5,0.2,0.7,0.7,0.9,1.1c-0.2,0.4-0.8,0.4-1,0.8
		c-0.6-0.4-1.2-0.1-1.8-0.3c-0.1,0.2-0.3,0.4-0.4,0.5C103.3,36.1,102.8,36.1,102.2,36.1z"/>
	<path class="st0" d="M27.8,10.1c-0.2-0.2-0.4-0.5-0.7-0.9c0-0.1,0.1-0.4,0.4-0.6c1.9,0,3.9,0,6.1,0c0.1,0.2,0.3,0.4,0.6,0.7
		c0,0.1,0,0.3,0,0.6c0,0.1-0.1,0.2-0.2,0.2c-0.6,0.6-1.3,0.9-2.1,0.5c-0.1-0.1-0.2-0.1-0.4-0.1C30.2,10.7,29,10.4,27.8,10.1z"/>
	<path class="st0" d="M97.4,6.8c-0.1,0.7-0.3,1.4-0.9,1.9c-0.4,0.2-0.7-0.2-1-0.3c-0.2-0.2,0-0.4-0.2-0.7c-0.5-0.2-0.5-0.9-1.1-1.2
		c-0.5-0.2-0.7-0.9-1.1-1.3c-0.3-0.4-0.1-1-0.7-1.2C92.6,3.7,93,3.6,93,3.1c0.3,0,0.7,0,1,0C95.3,4.2,96,5.8,97.4,6.8z"/>
	<path class="st0" d="M86.7,13.6c0.3,0,0.6,0,0.9,0c0.2-0.2,0.3-0.3,0.5-0.5c0.6,0,1.2,0,1.8-0.2c0.5-0.2,1.1,0.1,1.6-0.3
		c0.2-0.1,0.5,0.1,0.7,0.4c0,0.6,0,1.3-0.8,1.6c-0.3,0.1-0.5,0.5-0.8,0.7c-1.1,0-2.2,0-3.2,0C86.8,14.9,86.6,14.4,86.7,13.6z"/>
	<path class="st0" d="M14.7,22.4c-0.2,0-0.5,0-0.8,0c-0.1-0.2-0.3-0.4-0.4-0.7l-0.1,0.1c0-0.3,0-0.6,0-1c0,0,0-0.1,0.1-0.2
		c0.7-0.9,1.8-1.4,2.3-2.5c0.3-0.6,0.9-0.8,1.7-0.7c0.1,0.2,0.3,0.4,0.6,0.7c0,0.2,0,0.5,0,1C16.7,19.9,15.4,20.8,14.7,22.4z"/>
	<path class="st0" d="M119,13.3c0,0-0.1-0.1-0.2-0.2c-0.6,0.2-1,0.7-1.8,0.5c-0.7-0.7-1.3-1.6-1.4-2.8c0.2-0.1,0.5-0.3,1-0.6
		c1,0.3,1.8,1.4,3,1.8c0,0.3,0,0.5,0,0.8C119.5,12.9,119.2,13.1,119,13.3z"/>
	<path class="st0" d="M109.7,5.5c0.4-0.2,0.5-0.6,0.7-1c-0.1-0.8,0.5-1.6,0.2-2.5c0.5,0,0.8,0,1.2,0c0.6,1.2,0.1,2.6,0.3,3.7
		c-0.4,1-1,1.4-1.9,1.3c-0.2-0.2-0.4-0.4-0.6-0.6C109.7,6,109.7,5.7,109.7,5.5z"/>
	<path class="st0" d="M18.2,26.1c0.5-0.5,0.9-0.9,1.2-1.3c0.7,0,1.5-0.2,2.1,0s1.1,0.1,1.6,0.2c0.5,0.3,0.4,0.7,0.4,1.1
		c-0.2,0.4-0.6,0.3-1,0.4s-0.7,0.3-1.2,0.2c-0.4,0-0.8-0.1-1.1,0c-0.4,0.1-0.8-0.3-1.1-0.3C18.8,26.7,18.5,26.5,18.2,26.1z"/>
	<path class="st0" d="M104.1,26.2c0.2,0.2,0.4,0.5,1,0.6c-0.5,0.1-0.8,0.3-0.9,0.5c-1.3,0.4-2.6,0.4-3.8,0.3
		c-0.7-0.4-0.3-0.9-0.1-1.4C101.5,26.2,102.8,26.2,104.1,26.2z"/>
	<path class="st0" d="M16.4,26.3c-0.1-0.8,0.5-0.8,0.9-1.1c0.1,0.2,0.3,0.4,0.6,0.8c0,0.1,0,0.3,0,0.6c-0.2,0.2-0.4,0.5-0.7,0.3
		C16.7,26.8,16.6,26.4,16.4,26.3z"/>
	<path class="st0" d="M30.4,53.4c-0.5,0-0.6-0.2-0.8-0.4c-0.1-0.5,0.1-0.7,0.6-0.9C30.5,52.5,30.3,53,30.4,53.4z"/>
</g>
</svg>
